{
    "asset" : {
        "generator" : "Khronos glTF Blender I/O v3.3.27",
        "version" : "2.0"
    },
    "scene" : 0,
    "scenes" : [
        {
            "name" : "Scene",
            "nodes" : [
                0
            ]
        }
    ],
    "nodes" : [
        {
            "mesh" : 0,
            "name" : "path1373",
            "scale" : [
                21.038835525512695,
                1,
                21.038835525512695
            ],
            "translation" : [
                -2.0138661861419678,
                0,
                2.155211925506592
            ]
        }
    ],
    "materials" : [
        {
            "doubleSided" : true,
            "name" : "SVGMat.001",
            "pbrMetallicRoughness" : {
                "baseColorFactor" : [
                    0,
                    0,
                    0,
                    1
                ],
                "metallicFactor" : 0,
                "roughnessFactor" : 0.4000000059604645
            }
        }
    ],
    "meshes" : [
        {
            "name" : "path1373",
            "primitives" : [
                {
                    "attributes" : {
                        "POSITION" : 0,
                        "NORMAL" : 1,
                        "TEXCOORD_0" : 2
                    },
                    "indices" : 3,
                    "material" : 0
                }
            ]
        }
    ],
    "accessors" : [
        {
            "bufferView" : 0,
            "componentType" : 5126,
            "count" : 6536,
            "max" : [
                0.15718968212604523,
                0.04999999701976776,
                -0.011671051383018494
            ],
            "min" : [
                0.038038574159145355,
                -0.04999999701976776,
                -0.18988102674484253
            ],
            "type" : "VEC3"
        },
        {
            "bufferView" : 1,
            "componentType" : 5126,
            "count" : 6536,
            "type" : "VEC3"
        },
        {
            "bufferView" : 2,
            "componentType" : 5126,
            "count" : 6536,
            "type" : "VEC2"
        },
        {
            "bufferView" : 3,
            "componentType" : 5123,
            "count" : 11700,
            "type" : "SCALAR"
        }
    ],
    "bufferViews" : [
        {
            "buffer" : 0,
            "byteLength" : 78432,
            "byteOffset" : 0,
            "target" : 34962
        },
        {
            "buffer" : 0,
            "byteLength" : 78432,
            "byteOffset" : 78432,
            "target" : 34962
        },
        {
            "buffer" : 0,
            "byteLength" : 52288,
            "byteOffset" : 156864,
            "target" : 34962
        },
        {
            "buffer" : 0,
            "byteLength" : 23400,
            "byteOffset" : 209152,
            "target" : 34963
        }
    ],
    "buffers" : [
        {
            "byteLength" : 232552,
            "uri" : "data:application/octet-stream;base64,"
        }
    ]
}
