<?xml version="1.0" encoding="utf-8"?>
<svg viewBox="0 0 700 700" xmlns="http://www.w3.org/2000/svg">
  <path id="path1373" d="M 311.287 656.583 C 305.789 654.087 302.377 648.694 297.881 635.393 C 292.17 618.497 290.784 606.159 290.828 572.624 C 290.85 556.147 291.476 535.557 292.219 526.869 C 294.016 505.873 299.316 452.842 302.721 421.785 C 306.177 390.259 306.189 388.965 303.012 388.114 C 301.664 387.752 299.306 387.45 297.773 387.442 C 292.433 387.414 276.536 382.816 267.879 378.797 C 263.081 376.569 255.112 371.479 250.149 367.471 C 245.19 363.468 240.575 360.192 239.893 360.192 C 239.21 360.192 231.257 367.879 222.218 377.275 C 204.443 395.751 165.01 431.959 159.637 434.737 C 157.815 435.679 154.291 436.45 151.805 436.45 C 140.044 436.45 132.374 426.339 135.455 414.895 C 136.503 411.005 139.08 408.202 153.799 394.942 C 188.254 363.902 216.133 335 216.133 330.321 C 216.133 329.124 214.412 324.137 212.308 319.239 C 204.987 302.194 203.796 295.652 203.8 272.496 C 203.804 249.815 205.823 232.965 211.346 209.512 C 213.573 200.054 214.035 196.428 213.127 195.52 C 211.87 194.263 206.982 197.458 178.733 217.998 C 168.277 225.601 166.293 226.628 161.303 227.029 C 156.714 227.397 154.985 227.009 151.959 224.932 C 143.993 219.465 141.513 212.263 144.712 203.885 C 146.357 199.578 148.445 197.636 163.046 186.833 C 198.311 160.743 219.971 148.018 236.885 143.454 C 247.718 140.532 253.952 140.987 259.339 145.096 C 267.183 151.08 268.394 159.768 262.836 170.184 C 255.558 183.823 246.857 207.713 243.419 223.498 C 236.703 254.334 236.135 295.588 242.409 296.778 C 245.561 297.376 288.487 237.876 311.013 201.686 C 322.844 182.679 364.082 101.333 372.039 81.308 C 388.2 40.637 391.867 32.776 396.11 29.705 C 400.374 26.619 409.55 26.144 414.403 28.758 C 418.883 31.172 423.118 38.616 423.118 44.078 C 423.118 46.116 419.958 57.41 416.096 69.176 C 409.539 89.154 388.184 159.022 380.757 184.8 C 374.351 207.033 367.526 236.984 360.401 274.13 C 347.773 339.965 346.846 345.126 347.468 346.133 C 348.838 348.349 353.817 346.726 369.28 339.021 C 394.616 326.397 415.959 311.184 428.553 296.772 L 433.042 291.635 L 434.046 276.074 C 435.786 249.097 438.394 232.588 445.451 203.864 C 455.721 162.067 466.194 138.023 481.831 120.345 C 487.939 113.44 493.997 110.657 503.074 110.587 C 515.444 110.492 522.284 115.341 528.256 128.44 C 532.26 137.22 533.441 147.147 532.028 160.141 C 528.953 188.432 521.901 210.287 504.74 244.717 C 492.093 270.092 483.472 284.536 472.944 297.99 L 464.847 311.299 L 465.997 327.336 C 467.977 354.93 471.287 365.751 476.358 386.283 C 480.499 403.05 484.97 413.402 493.89 426.88 C 509.568 450.57 524.383 462.308 542.406 465.318 C 552.553 467.013 557.727 473.703 556.871 484.024 C 556.469 488.873 555.74 490.564 552.701 493.699 C 548.388 498.15 542.77 499.954 536.21 498.996 C 516.376 496.099 495.897 484.109 480.419 466.329 C 471.06 455.579 459.167 437.727 453.661 426.167 C 446.09 410.267 439.4 384.085 435.768 356.139 C 434.153 343.709 433.59 341.673 431.772 341.673 C 431.21 341.673 427.744 343.885 424.07 346.59 C 402.543 362.437 367.955 379.551 348.147 384.155 C 343.942 385.132 342.12 386.14 341.504 387.826 C 341.037 389.105 339.841 397.994 338.846 407.581 C 337.851 417.168 335.801 436.532 334.29 450.612 C 328.077 508.504 325.978 534.711 325.383 561.813 C 324.592 597.83 325.772 609.986 331.756 627.463 C 336.528 641.401 336.644 644.341 332.673 650.851 C 330.334 654.686 323.159 658.638 318.536 658.638 C 317.038 658.638 313.776 657.714 311.287 656.583 Z M 310.402 352.294 C 310.683 351.545 312.351 343.089 314.108 333.502 C 315.865 323.916 320.537 299.2 324.491 278.578 C 329.821 250.781 331.361 240.779 330.446 239.904 C 328.897 238.425 327.852 239.724 310.793 264.326 C 303.522 274.811 289.789 293.765 280.275 306.446 C 270.761 319.126 262.977 330.44 262.977 331.587 C 262.977 333.977 272.781 342.319 280.575 346.561 C 290.252 351.828 309.207 355.471 310.402 352.294 Z M 477.317 241.132 C 490.74 213.531 502.231 185.451 504.919 160.508 C 506.494 145.895 503.127 138.992 490.478 159.178 C 476.524 184.326 470.29 205.054 464.147 235.824 C 462.188 253.188 465.059 258.892 477.317 241.132 Z" style="fill-opacity: 1; stroke-width: 1.08939;"/>
</svg>